<svg width="531" height="275" viewBox="0 0 531 275" fill="none" xmlns="http://www.w3.org/2000/svg">
<path d="M266 0.333333C264.527 0.333333 263.333 1.52724 263.333 3C263.333 4.47276 264.527 5.66667 266 5.66667C267.473 5.66667 268.667 4.47276 268.667 3C268.667 1.52724 267.473 0.333333 266 0.333333ZM266 269.333C264.527 269.333 263.333 270.527 263.333 272C263.333 273.473 264.527 274.667 266 274.667C267.473 274.667 268.667 273.473 268.667 272C268.667 270.527 267.473 269.333 266 269.333ZM265.5 3L265.5 272L266.5 272L266.5 3L265.5 3Z" fill="#00C3D0"/>
<path d="M0.333333 152.5C0.333333 153.973 1.52724 155.167 3 155.167C4.47276 155.167 5.66667 153.973 5.66667 152.5C5.66667 151.027 4.47276 149.833 3 149.833C1.52724 149.833 0.333333 151.027 0.333333 152.5ZM525.333 152.5C525.333 153.973 526.527 155.167 528 155.167C529.473 155.167 530.667 153.973 530.667 152.5C530.667 151.027 529.473 149.833 528 149.833C526.527 149.833 525.333 151.027 525.333 152.5ZM3 153H528V152H3V153Z" fill="#00C3D0"/>
<circle cx="267.5" cy="138.5" r="84" fill="white" stroke="#00C3D0"/>
<g clip-path="url(#clip0_348_213)">
<path d="M294.703 141.36L280.676 100.821C280.522 100.392 280.28 100.063 279.984 99.8215C279.291 98.8442 277.741 98.2623 276.906 98.1415C276.334 98.0537 275.092 97.9988 273.476 97.9548L258.162 97.9878C256.546 98.0427 255.304 98.1086 254.733 98.1964C253.633 98.3611 251.314 99.3274 251.314 100.898L237.298 141.436C236.682 143.138 237.572 145.027 239.276 145.631C239.639 145.763 240.002 145.829 240.376 145.829C241.728 145.829 243.003 145.005 243.487 143.665L252.171 122.045L253.205 147.915C253.545 158.258 254.469 200.576 254.48 200.817C254.667 206.209 262.472 206.264 263.12 201.048L266.176 148.552L269.057 201.026C269.727 206.242 277.532 206.143 277.697 200.762C277.697 200.521 278.851 158.203 279.137 147.86L279.797 121.892L288.525 143.6C289.009 144.939 290.284 145.774 291.636 145.774C291.999 145.774 292.373 145.708 292.736 145.576C294.439 144.961 295.33 143.083 294.714 141.382L294.703 141.36Z" fill="#B9DDE4" stroke="#231815" stroke-width="2" stroke-miterlimit="10"/>
<path d="M265.857 94.474C266.077 94.474 266.286 94.4521 266.495 94.4411C272.937 94.0897 278.049 88.7753 278.027 82.2531C278.016 75.5222 272.53 70.076 265.791 70.098C259.053 70.1089 253.6 75.5881 253.622 82.3189C253.644 89.0498 259.119 94.496 265.857 94.474Z" fill="#B9DDE4" stroke="#231815" stroke-width="2" stroke-miterlimit="10"/>
</g>
<defs>
<clipPath id="clip0_348_213">
<rect width="60" height="137" fill="white" transform="translate(236 69)"/>
</clipPath>
</defs>
</svg>
