<svg width="264" height="325" viewBox="0 0 264 325" fill="none" xmlns="http://www.w3.org/2000/svg">
<path d="M160.341 0.355259C158.881 0.166788 157.544 1.19809 157.355 2.65874C157.167 4.11939 158.198 5.45627 159.659 5.64474C161.119 5.83321 162.456 4.80191 162.645 3.34126C162.833 1.88061 161.802 0.54373 160.341 0.355259ZM140.341 155.355C138.881 155.167 137.544 156.198 137.355 157.659C137.167 159.119 138.198 160.456 139.659 160.645C141.119 160.833 142.456 159.802 142.645 158.341C142.833 156.881 141.802 155.544 140.341 155.355ZM159.504 2.93601L139.504 157.936L140.496 158.064L160.496 3.06399L159.504 2.93601Z" fill="#00C3D0"/>
<path d="M139 173.333C137.527 173.333 136.333 174.527 136.333 176C136.333 177.473 137.527 178.667 139 178.667C140.473 178.667 141.667 177.473 141.667 176C141.667 174.527 140.473 173.333 139 173.333ZM139 319.333C137.527 319.333 136.333 320.527 136.333 322C136.333 323.473 137.527 324.667 139 324.667C140.473 324.667 141.667 323.473 141.667 322C141.667 320.527 140.473 319.333 139 319.333ZM138.5 176V322H139.5V176H138.5Z" fill="#00C3D0"/>
<path d="M0.686781 79.6733C-0.0459346 80.9509 0.395745 82.5805 1.6733 83.3132C2.95086 84.0459 4.5805 83.6043 5.31322 82.3267C6.04593 81.0491 5.60425 79.4195 4.3267 78.6868C3.04914 77.9541 1.4195 78.3957 0.686781 79.6733ZM136.687 157.673C135.954 158.951 136.396 160.581 137.673 161.313C138.951 162.046 140.581 161.604 141.313 160.327C142.046 159.049 141.604 157.419 140.327 156.687C139.049 155.954 137.42 156.396 136.687 157.673ZM2.75124 81.4337L138.751 159.434L139.249 158.566L3.24876 80.5663L2.75124 81.4337Z" fill="#00C3D0"/>
<path d="M136.812 156.476C135.97 157.684 136.267 159.346 137.476 160.188C138.684 161.03 140.346 160.733 141.188 159.524C142.03 158.316 141.733 156.654 140.524 155.812C139.316 154.97 137.654 155.267 136.812 156.476ZM258.812 241.476C257.97 242.684 258.267 244.346 259.476 245.188C260.684 246.03 262.346 245.733 263.188 244.524C264.03 243.316 263.733 241.654 262.524 240.812C261.316 239.97 259.654 240.267 258.812 241.476ZM138.714 158.41L260.714 243.41L261.286 242.59L139.286 157.59L138.714 158.41Z" fill="#00C3D0"/>
<path d="M0.775628 244.471C1.58793 245.699 3.24232 246.037 4.47081 245.224C5.6993 244.412 6.03668 242.758 5.22437 241.529C4.41207 240.301 2.75768 239.963 1.52919 240.776C0.300704 241.588 -0.0366777 243.242 0.775628 244.471ZM245.776 82.4708C246.588 83.6993 248.242 84.0367 249.471 83.2244C250.699 82.4121 251.037 80.7577 250.224 79.5292C249.412 78.3007 247.758 77.9633 246.529 78.7756C245.301 79.5879 244.963 81.2423 245.776 82.4708ZM3.27578 243.417L248.276 81.4171L247.724 80.5829L2.72422 242.583L3.27578 243.417Z" fill="#00C3D0"/>
<circle cx="139.5" cy="158.5" r="84" fill="white" stroke="#00C3D0"/>
<g clip-path="url(#clip0_348_212)">
<path d="M167.703 159.36L153.676 118.821C153.522 118.392 153.28 118.063 152.983 117.821C152.291 116.844 150.741 116.262 149.905 116.141C149.333 116.054 148.091 115.999 146.475 115.955L131.162 115.988C129.546 116.043 128.304 116.109 127.732 116.196C126.633 116.361 124.313 117.327 124.313 118.898L110.297 159.436C109.682 161.138 110.572 163.027 112.276 163.631C112.639 163.763 113.001 163.829 113.375 163.829C114.727 163.829 116.003 163.005 116.486 161.665L125.171 140.045L126.204 165.915C126.545 176.258 127.468 218.576 127.479 218.817C127.666 224.209 135.471 224.264 136.12 219.048L139.176 166.552L142.056 219.026C142.727 224.242 150.532 224.143 150.697 218.762C150.697 218.521 151.851 176.203 152.137 165.86L152.796 139.892L161.525 161.6C162.008 162.939 163.284 163.774 164.636 163.774C164.999 163.774 165.372 163.708 165.735 163.576C167.439 162.961 168.329 161.083 167.714 159.382L167.703 159.36Z" fill="#B9DDE4" stroke="#231815" stroke-width="2" stroke-miterlimit="10"/>
<path d="M138.857 112.474C139.077 112.474 139.286 112.452 139.494 112.441C145.936 112.09 151.048 106.775 151.026 100.253C151.015 93.5222 145.53 88.076 138.791 88.098C132.052 88.1089 126.6 93.5881 126.622 100.319C126.644 107.05 132.118 112.496 138.857 112.474Z" fill="#B9DDE4" stroke="#231815" stroke-width="2" stroke-miterlimit="10"/>
</g>
<defs>
<clipPath id="clip0_348_212">
<rect width="60" height="137" fill="white" transform="translate(109 87)"/>
</clipPath>
</defs>
</svg>
