<svg width="61" height="77" viewBox="0 0 61 77" fill="none" xmlns="http://www.w3.org/2000/svg">
<circle cx="30.5" cy="30" r="30" fill="#00C3D0"/>
<path d="M16.7921 27.5521H29.2521V29.2881H16.7921V27.5521ZM23.9741 28.2521C24.8141 31.4581 26.5921 34.1181 29.5601 35.2941C29.1401 35.6721 28.5801 36.4001 28.3001 36.8901C25.0941 35.3921 23.3441 32.4941 22.2801 28.6441L23.9741 28.2521ZM22.0421 23.7861H23.8901C23.8201 28.0561 23.7921 33.9921 17.7861 36.8901C17.5201 36.4281 17.0021 35.8261 16.5121 35.4621C22.2521 32.9001 22.0001 27.5801 22.0421 23.7861ZM35.8321 24.1221H37.7501C37.6241 26.4741 37.4421 33.3061 31.7161 36.8201C31.4221 36.3861 30.8761 35.8681 30.3021 35.4761C35.9301 32.3541 35.7341 25.9561 35.8321 24.1221ZM37.6941 24.4861C37.7361 25.7041 38.0301 32.6901 43.7701 35.3781C43.2381 35.7841 42.7341 36.3441 42.4821 36.8061C36.4481 33.8101 36.1821 26.0961 36.0701 24.6541L37.6941 24.4861Z" fill="white"/>
<path d="M39.0348 52.006L38.4281 52.8019L39.2245 53.408L40.1515 54.1134L40.9474 54.719L41.5529 53.9231L41.9763 53.3667L42.5822 52.5704L41.7856 51.965L40.8586 51.2605L40.0635 50.6562L39.4582 51.4505L39.0348 52.006Z" fill="white" stroke="#00C3D0" stroke-width="2"/>
<path d="M43.0665 48.0991L42.1001 47.3647L41.5642 48.4537L39.9882 51.656L39.7601 52.1195L39.3732 52.4651L36.7268 54.8295L35.8226 55.6374L36.7878 56.3713L38.9287 57.9991L38.929 57.9993C39.8043 58.6643 41.0529 58.494 41.7181 57.6193L41.7183 57.619L45.5927 52.5212C45.5929 52.5211 45.593 52.5209 45.5931 52.5207C46.26 51.6452 46.0895 50.3956 45.2135 49.7308C45.2134 49.7308 45.2133 49.7307 45.2132 49.7306L43.0665 48.0991ZM40.8013 53.2903L40.8014 53.2904L40.8013 53.2903Z" fill="white" stroke="#00C3D0" stroke-width="2"/>
<mask id="path-5-outside-1_136_26" maskUnits="userSpaceOnUse" x="11" y="45.0807" width="35" height="32" fill="black">
<rect fill="white" x="11" y="45.0807" width="35" height="32"/>
<path d="M30.3865 54.9906L32.4868 52.6922L36.2758 51.5756C36.3187 51.6373 36.3631 51.6987 36.4262 51.7463L36.8431 52.0632L37.2231 51.5633L36.9657 51.3666C37.7216 51.0827 38.1832 50.299 38.0399 49.4856C38.047 49.4828 38.0521 49.4742 38.0607 49.4733C38.089 49.4691 38.1154 49.4747 38.139 49.4931L38.5558 49.8109L38.9369 49.3097L38.5191 48.9923C38.3587 48.8702 38.1617 48.8235 37.9759 48.8499C37.9211 48.8574 37.8707 48.8839 37.8189 48.9032C37.4558 48.3039 36.748 47.9653 36.0236 48.1167L31.956 48.9914C31.2496 49.1432 30.5922 49.4705 30.0452 49.9435L26.5284 52.9836L27.7535 58.2914L22.8983 56.1223L19.9738 58.6512L15.378 59.4647C14.4566 59.6429 13.853 60.5342 14.0312 61.4565C14.2094 62.3785 15.1007 62.9811 16.023 62.8033L20.3104 62.445C21.1413 62.3657 21.9316 62.0469 22.5852 61.5273L24.9741 59.7745L27.6252 62.6572L24.7694 64.9362C23.7367 65.7562 23.5538 67.4882 24.6478 68.4907L31.0863 73.634C31.8257 74.3838 33.0339 74.3923 33.7837 73.6529C34.5335 72.9135 34.5419 71.7058 33.8025 70.9556L28.7796 66.7286L32.6152 64.6995L40.6524 73.511C41.3493 74.3008 42.5546 74.3763 43.345 73.6788C44.1343 72.9814 44.2098 71.7766 43.5119 70.9862L30.3865 54.9906Z"/>
</mask>
<path d="M30.3865 54.9906L32.4868 52.6922L36.2758 51.5756C36.3187 51.6373 36.3631 51.6987 36.4262 51.7463L36.8431 52.0632L37.2231 51.5633L36.9657 51.3666C37.7216 51.0827 38.1832 50.299 38.0399 49.4856C38.047 49.4828 38.0521 49.4742 38.0607 49.4733C38.089 49.4691 38.1154 49.4747 38.139 49.4931L38.5558 49.8109L38.9369 49.3097L38.5191 48.9923C38.3587 48.8702 38.1617 48.8235 37.9759 48.8499C37.9211 48.8574 37.8707 48.8839 37.8189 48.9032C37.4558 48.3039 36.748 47.9653 36.0236 48.1167L31.956 48.9914C31.2496 49.1432 30.5922 49.4705 30.0452 49.9435L26.5284 52.9836L27.7535 58.2914L22.8983 56.1223L19.9738 58.6512L15.378 59.4647C14.4566 59.6429 13.853 60.5342 14.0312 61.4565C14.2094 62.3785 15.1007 62.9811 16.023 62.8033L20.3104 62.445C21.1413 62.3657 21.9316 62.0469 22.5852 61.5273L24.9741 59.7745L27.6252 62.6572L24.7694 64.9362C23.7367 65.7562 23.5538 67.4882 24.6478 68.4907L31.0863 73.634C31.8257 74.3838 33.0339 74.3923 33.7837 73.6529C34.5335 72.9135 34.5419 71.7058 33.8025 70.9556L28.7796 66.7286L32.6152 64.6995L40.6524 73.511C41.3493 74.3008 42.5546 74.3763 43.345 73.6788C44.1343 72.9814 44.2098 71.7766 43.5119 70.9862L30.3865 54.9906Z" fill="white"/>
<path d="M30.3865 54.9906L28.9101 53.6414L27.7416 54.9202L28.8404 56.2593L30.3865 54.9906ZM32.4868 52.6922L31.9215 50.7738L31.3866 50.9315L31.0105 51.3431L32.4868 52.6922ZM36.2758 51.5756L37.9181 50.4341L37.0945 49.2493L35.7104 49.6572L36.2758 51.5756ZM36.4262 51.7463L37.6366 50.1541L37.6299 50.149L36.4262 51.7463ZM36.8431 52.0632L35.6327 53.6553L37.2248 54.8656L38.4352 53.2736L36.8431 52.0632ZM37.2231 51.5633L38.8152 52.7738L40.023 51.1853L38.4372 49.9739L37.2231 51.5633ZM36.9657 51.3666L36.2625 49.4943L32.882 50.7639L35.7516 52.956L36.9657 51.3666ZM38.0399 49.4856L37.2944 47.6298L35.7887 48.2346L36.0702 49.8327L38.0399 49.4856ZM38.0607 49.4733L38.2722 51.4621L38.3148 51.4576L38.3572 51.4512L38.0607 49.4733ZM38.139 49.4931L36.9074 51.069L36.9169 51.0764L36.9264 51.0836L38.139 49.4931ZM38.5558 49.8109L37.3433 51.4014L38.9359 52.6157L40.148 51.0213L38.5558 49.8109ZM38.9369 49.3097L40.5291 50.5201L41.7401 48.9271L40.1465 47.7169L38.9369 49.3097ZM38.5191 48.9923L37.3072 50.5834L37.3095 50.5851L38.5191 48.9923ZM37.9759 48.8499L38.2476 50.8314L38.2572 50.8301L37.9759 48.8499ZM37.8189 48.9032L36.1083 49.9395L36.966 51.3554L38.5173 50.7773L37.8189 48.9032ZM36.0236 48.1167L35.6145 46.1589L35.6032 46.1614L36.0236 48.1167ZM31.956 48.9914L32.3763 50.9467L32.3764 50.9467L31.956 48.9914ZM30.0452 49.9435L31.3532 51.4565L31.3534 51.4563L30.0452 49.9435ZM26.5284 52.9836L25.2204 51.4706L24.3085 52.2589L24.5796 53.4334L26.5284 52.9836ZM27.7535 58.2914L26.9376 60.1175L30.6058 61.7563L29.7022 57.8416L27.7535 58.2914ZM22.8983 56.1223L23.7142 54.2962L22.5525 53.7773L21.5902 54.6095L22.8983 56.1223ZM19.9738 58.6512L20.3224 60.6206L20.8651 60.5245L21.282 60.164L19.9738 58.6512ZM15.378 59.4647L15.0294 57.4953L15.0137 57.498L14.9981 57.5011L15.378 59.4647ZM14.0312 61.4565L12.0675 61.8359L12.0675 61.8362L14.0312 61.4565ZM16.023 62.8033L15.8564 60.8103L15.7497 60.8192L15.6445 60.8395L16.023 62.8033ZM20.3104 62.445L20.477 64.438L20.4886 64.437L20.5003 64.4359L20.3104 62.445ZM22.5852 61.5273L21.4021 59.9148L21.3708 59.9377L21.3405 59.9618L22.5852 61.5273ZM24.9741 59.7745L26.4462 58.4207L25.2343 57.103L23.7909 58.162L24.9741 59.7745ZM27.6252 62.6572L28.8727 64.2204L30.5494 62.8823L29.0973 61.3033L27.6252 62.6572ZM24.7694 64.9362L26.0132 66.5024L26.0169 66.4994L24.7694 64.9362ZM24.6478 68.4907L23.2966 69.9653L23.3465 70.0111L23.3995 70.0534L24.6478 68.4907ZM31.0863 73.634L32.5104 72.2297L32.4272 72.1453L32.3346 72.0713L31.0863 73.634ZM33.7837 73.6529L35.188 75.0769L35.1881 75.0769L33.7837 73.6529ZM33.8025 70.9556L35.2269 69.5517L35.1616 69.4853L35.0903 69.4254L33.8025 70.9556ZM28.7796 66.7286L27.8443 64.9607L25.2215 66.3483L27.4918 68.2588L28.7796 66.7286ZM32.6152 64.6995L34.0929 63.3517L33.0491 62.2073L31.68 62.9316L32.6152 64.6995ZM40.6524 73.511L42.1521 72.1878L42.1412 72.1754L42.13 72.1632L40.6524 73.511ZM43.345 73.6788L44.6683 75.1784L44.6692 75.1776L43.345 73.6788ZM43.5119 70.9862L41.9658 72.2549L41.9888 72.2829L42.0128 72.3101L43.5119 70.9862ZM31.8629 56.3398L33.9632 54.0414L31.0105 51.3431L28.9101 53.6414L31.8629 56.3398ZM33.0522 54.6107L36.8412 53.494L35.7104 49.6572L31.9215 50.7738L33.0522 54.6107ZM34.6336 52.7171C34.6706 52.7704 34.8745 53.0812 35.2225 53.3435L37.6299 50.149C37.7496 50.2392 37.8304 50.3269 37.8754 50.3805C37.9148 50.4275 37.9379 50.4626 37.9181 50.4341L34.6336 52.7171ZM35.2158 53.3384L35.6327 53.6553L38.0534 50.471L37.6366 50.1541L35.2158 53.3384ZM38.4352 53.2736L38.8152 52.7738L35.631 50.3528L35.251 50.8527L38.4352 53.2736ZM38.4372 49.9739L38.1798 49.7773L35.7516 52.956L36.0091 53.1526L38.4372 49.9739ZM37.6689 53.2389C39.3122 52.6218 40.3225 50.9148 40.0096 49.1386L36.0702 49.8327C36.0439 49.6833 36.1311 49.5437 36.2625 49.4943L37.6689 53.2389ZM38.7854 51.3415C39.021 51.2468 39.1836 51.1289 39.2485 51.08C39.2838 51.0534 39.3107 51.0312 39.3168 51.0262C39.3333 51.0126 39.3127 51.0296 39.3026 51.0377C39.2764 51.0587 39.1667 51.1475 39.0081 51.2334C38.8362 51.3266 38.5868 51.4286 38.2722 51.4621L37.8491 47.4846C37.5303 47.5185 37.277 47.6219 37.1016 47.717C36.9394 47.8049 36.8263 47.8962 36.7969 47.9198C36.7852 47.9292 36.763 47.9475 36.7779 47.9353C36.7824 47.9316 36.8077 47.9107 36.8414 47.8853C36.9031 47.8388 37.0623 47.723 37.2944 47.6298L38.7854 51.3415ZM38.3572 51.4512C38.1502 51.4823 37.9002 51.4839 37.6298 51.4183C37.3552 51.3516 37.1107 51.2278 36.9074 51.069L39.3705 47.9173C38.8716 47.5274 38.2793 47.4182 37.7642 47.4954L38.3572 51.4512ZM36.9264 51.0836L37.3433 51.4014L39.7684 48.2204L39.3515 47.9026L36.9264 51.0836ZM40.148 51.0213L40.5291 50.5201L37.3448 48.0993L36.9637 48.6005L40.148 51.0213ZM40.1465 47.7169L39.7287 47.3996L37.3095 50.5851L37.7273 50.9024L40.1465 47.7169ZM39.731 47.4013C39.1339 46.9466 38.3962 46.7701 37.6945 46.8698L38.2572 50.8301C37.9272 50.8769 37.5836 50.7939 37.3072 50.5834L39.731 47.4013ZM37.7041 46.8685C37.4536 46.9029 37.2615 46.9735 37.1786 47.0053C37.1375 47.0211 37.0986 47.0374 37.0944 47.0391C37.0805 47.0448 37.097 47.0379 37.1204 47.0291L38.5173 50.7773C38.5666 50.7589 38.6088 50.7414 38.6207 50.7365C38.6423 50.7276 38.629 50.7331 38.6139 50.739C38.5829 50.7509 38.4434 50.8045 38.2476 50.8314L37.7041 46.8685ZM39.5294 47.8669C38.7479 46.5769 37.2086 45.8258 35.6145 46.1589L36.4328 50.0744C36.2873 50.1048 36.1636 50.0308 36.1083 49.9395L39.5294 47.8669ZM35.6032 46.1614L31.5355 47.0361L32.3764 50.9467L36.4441 50.072L35.6032 46.1614ZM31.5356 47.036C30.5013 47.2584 29.5385 47.7376 28.737 48.4307L31.3534 51.4563C31.6459 51.2034 31.9978 51.0281 32.3763 50.9467L31.5356 47.036ZM28.7373 48.4304L25.2204 51.4706L27.8363 54.4966L31.3532 51.4565L28.7373 48.4304ZM24.5796 53.4334L25.8047 58.7412L29.7022 57.8416L28.4771 52.5338L24.5796 53.4334ZM28.5693 56.4654L23.7142 54.2962L22.0825 57.9483L26.9376 60.1175L28.5693 56.4654ZM21.5902 54.6095L18.6656 57.1384L21.282 60.164L24.2065 57.6351L21.5902 54.6095ZM19.6252 56.6818L15.0294 57.4953L15.7266 61.434L20.3224 60.6206L19.6252 56.6818ZM14.9981 57.5011C12.9937 57.8888 11.6796 59.8279 12.0675 61.8359L15.9949 61.0772C16.0264 61.2404 15.9195 61.397 15.7579 61.4283L14.9981 57.5011ZM12.0675 61.8362C12.4555 63.8427 14.3956 65.1538 16.4015 64.7672L15.6445 60.8395C15.8058 60.8084 15.9634 60.9142 15.9948 61.0769L12.0675 61.8362ZM16.1896 64.7964L20.477 64.438L20.1438 60.4519L15.8564 60.8103L16.1896 64.7964ZM20.5003 64.4359C21.7165 64.3199 22.8733 63.8533 23.8299 63.0928L21.3405 59.9618C20.99 60.2405 20.566 60.4115 20.1205 60.454L20.5003 64.4359ZM23.7683 63.1398L26.1572 61.387L23.7909 58.162L21.4021 59.9148L23.7683 63.1398ZM23.502 61.1284L26.1531 64.011L29.0973 61.3033L26.4462 58.4207L23.502 61.1284ZM26.3777 61.0939L23.5219 63.3729L26.0169 66.4994L28.8727 64.2204L26.3777 61.0939ZM23.5257 63.3699C21.6019 64.8976 21.229 68.0706 23.2966 69.9653L25.999 67.0162C25.9406 66.9627 25.9005 66.8856 25.9078 66.7601C25.9163 66.6122 25.9852 66.5246 26.0132 66.5024L23.5257 63.3699ZM23.3995 70.0534L29.8381 75.1966L32.3346 72.0713L25.896 66.9281L23.3995 70.0534ZM29.6623 75.0383C31.1772 76.5745 33.6517 76.5919 35.188 75.0769L32.3794 72.2288C32.4161 72.1926 32.4743 72.193 32.5104 72.2297L29.6623 75.0383ZM35.1881 75.0769C36.7244 73.5618 36.7413 71.0881 35.2269 69.5517L32.3781 72.3596C32.3426 72.3235 32.3425 72.2652 32.3794 72.2288L35.1881 75.0769ZM35.0903 69.4254L30.0673 65.1983L27.4918 68.2588L32.5148 72.4859L35.0903 69.4254ZM29.7148 68.4965L33.5504 66.4674L31.68 62.9316L27.8443 64.9607L29.7148 68.4965ZM31.1376 66.0473L39.1747 74.8588L42.13 72.1632L34.0929 63.3517L31.1376 66.0473ZM39.1527 74.8342C40.5806 76.4525 43.0499 76.6066 44.6683 75.1784L42.0216 72.1793C42.0594 72.1459 42.118 72.1491 42.1521 72.1878L39.1527 74.8342ZM44.6692 75.1776C46.2855 73.7496 46.4406 71.2812 45.011 69.6624L42.0128 72.3101C41.979 72.2719 41.9832 72.2132 42.0207 72.1801L44.6692 75.1776ZM45.058 69.7176L31.9326 53.7219L28.8404 56.2593L41.9658 72.2549L45.058 69.7176Z" fill="#00C3D0" mask="url(#path-5-outside-1_136_26)"/>
<path d="M36.4754 54.8779L37.0008 55.2773L39.648 52.9129L39.6028 52.879C39.4585 52.7692 39.4302 52.5616 39.5406 52.4165L39.9867 51.8294C40.097 51.6841 40.3045 51.6559 40.4488 51.7667L40.4941 51.8001L42.07 48.5978L41.5504 48.2021C41.1137 47.8711 40.4931 47.9555 40.1611 48.3908L36.2859 53.4901C35.9549 53.9253 36.0398 54.5464 36.4754 54.8779Z" fill="white"/>
<path d="M36.4754 54.8779L37.0008 55.2773L39.648 52.9129L39.6028 52.879C39.4585 52.7692 39.4302 52.5616 39.5406 52.4165L39.9867 51.8294C40.097 51.6841 40.3045 51.6559 40.4488 51.7667L40.4941 51.8001L42.07 48.5978L41.5504 48.2021C41.1137 47.8711 40.4931 47.9555 40.1611 48.3908L36.2859 53.4901C35.9549 53.9253 36.0398 54.5464 36.4754 54.8779Z" stroke="#00C3D0"/>
<path d="M25.8738 56.923L27.0649 57.4549L26.7725 56.1864L24.7666 54.022L23.8979 54.7906L25.8738 56.923Z" fill="white"/>
<path d="M25.8738 56.923L27.0649 57.4549L26.7725 56.1864L24.7666 54.022L23.8979 54.7906L25.8738 56.923Z" stroke="#00C3D0"/>
<path d="M21.427 54.819C23.1727 54.819 24.5874 53.4043 24.5874 51.6595C24.5874 49.9143 23.1727 48.4996 21.427 48.4996C19.6823 48.4996 18.2676 49.9143 18.2676 51.6595C18.2676 53.4043 19.6823 54.819 21.427 54.819Z" fill="white"/>
<path d="M21.427 54.819C23.1727 54.819 24.5874 53.4043 24.5874 51.6595C24.5874 49.9143 23.1727 48.4996 21.427 48.4996C19.6823 48.4996 18.2676 49.9143 18.2676 51.6595C18.2676 53.4043 19.6823 54.819 21.427 54.819Z" stroke="#00C3D0"/>
</svg>
