<svg width="61" height="72" viewBox="0 0 61 72" fill="none" xmlns="http://www.w3.org/2000/svg">
<circle cx="30.5" cy="30" r="30" fill="#00C3D0"/>
<path d="M9.24613 34.1041C10.6881 33.8801 12.8301 33.4741 14.8461 33.0681L15.0141 34.6641C13.1241 35.0701 11.1081 35.4761 9.56813 35.7981L9.24613 34.1041ZM9.28813 28.2661L10.1981 26.8101C11.3041 27.7481 12.7461 29.0641 13.3201 30.0021L12.3121 31.6681C11.7381 30.6881 10.3801 29.2741 9.28813 28.2661ZM13.4741 31.5281L14.8881 30.8981C15.5181 32.1021 16.1201 33.6421 16.2601 34.6781L14.7341 35.4061C14.6081 34.3841 14.0761 32.7741 13.4741 31.5281ZM12.2701 23.8141L14.0201 24.4301C13.3061 25.9561 12.4241 27.6781 11.6961 28.7981L10.2821 28.2241C10.9821 27.0481 11.8081 25.2281 12.2701 23.8141ZM14.0621 26.8241L15.7701 27.3701C14.5101 29.9461 12.7881 32.8581 11.3741 34.7341L9.93213 34.1601C11.3461 32.2701 13.0821 29.2181 14.0621 26.8241ZM15.4341 26.5861H21.3561V28.2381H15.4341V26.5861ZM20.7261 26.5861H22.3921C22.3921 26.5861 22.3921 27.1601 22.3781 27.3701C22.2101 33.2641 22.0561 35.3781 21.5521 36.0501C21.2161 36.5401 20.8801 36.6941 20.3761 36.7921C19.9141 36.8761 19.2281 36.8621 18.5141 36.8341C18.4861 36.3721 18.2901 35.6581 18.0101 35.1961C18.6681 35.2521 19.2421 35.2521 19.5501 35.2521C19.7741 35.2661 19.9141 35.2101 20.0541 35.0141C20.4181 34.5801 20.5861 32.4941 20.7261 26.9641V26.5861ZM17.3381 23.8701H19.0461V28.1961C19.0461 31.1921 18.5421 34.4961 15.4201 36.9321C15.1121 36.5541 14.5381 36.0921 14.0901 35.7841C16.9741 33.5301 17.3381 30.6321 17.3381 28.1961V23.8701ZM29.1401 23.7861H30.8621V30.6041C30.8621 31.5001 30.6941 31.9761 30.0781 32.2421C29.4901 32.5081 28.6221 32.5501 27.4741 32.5501C27.4041 32.0601 27.1381 31.3041 26.8861 30.8281C27.6841 30.8561 28.5661 30.8421 28.8181 30.8421C29.0561 30.8421 29.1401 30.7861 29.1401 30.5761V23.7861ZM32.1921 26.1381L33.7461 25.3401C34.8941 26.7401 36.1821 28.6161 36.6721 29.9601L34.9501 30.8981C34.5301 29.5961 33.3261 27.6221 32.1921 26.1381ZM32.8221 29.7081L34.6281 30.2121C33.2421 34.5661 30.4421 36.1761 25.3741 36.9881C25.2061 36.4561 24.8281 35.7421 24.4781 35.3081C29.1261 34.7761 31.6741 33.4461 32.8221 29.7081ZM25.9341 25.5501L27.8101 25.9841C27.1521 27.7481 26.1161 29.7781 24.8981 31.0241C24.5061 30.7021 23.8201 30.2541 23.3721 30.0301C24.5481 28.9101 25.5141 27.0341 25.9341 25.5501ZM45.6041 24.4161H49.2301V25.9281H45.6041V24.4161ZM45.6041 27.5801H49.2301V29.0501H45.6041V27.5801ZM45.6041 30.7721H49.2441V32.2701H45.6041V30.7721ZM48.5021 24.4161H50.1261V35.0841C50.1261 35.8961 49.9721 36.3581 49.4681 36.6101C48.9781 36.8761 48.2641 36.9181 47.2141 36.9181C47.1721 36.4701 46.9481 35.7421 46.7381 35.3221C47.3401 35.3501 48.0261 35.3501 48.2221 35.3361C48.4321 35.3361 48.5021 35.2661 48.5021 35.0561V24.4161ZM44.9181 24.4161H46.4861V29.5541C46.4861 31.7661 46.3041 34.9721 45.1141 36.9601C44.8341 36.6661 44.1481 36.1761 43.7841 36.0081C44.8341 34.2161 44.9181 31.5561 44.9181 29.5541V24.4161ZM37.5821 25.4381H44.4421V26.8941H37.5821V25.4381ZM39.4161 27.7201H42.7481V29.0081H39.4161V27.7201ZM39.4161 29.9041H42.7621V31.1781H39.4161V29.9041ZM37.4141 32.1161H44.3441V33.5861H37.4141V32.1161ZM38.6881 23.9401H40.2001V32.6481H38.6881V23.9401ZM41.9501 23.9401H43.4901V32.6481H41.9501V23.9401ZM39.1641 33.6841L40.7461 34.1461C40.2281 35.1821 39.4021 36.2741 38.6601 36.9601C38.3381 36.6801 37.6941 36.2041 37.3021 35.9801C38.0581 35.4061 38.7721 34.5381 39.1641 33.6841ZM41.2361 34.3141L42.5101 33.6141C43.0701 34.2301 43.7841 35.0841 44.1061 35.6581L42.7481 36.4561C42.4681 35.8961 41.7961 34.9721 41.2361 34.3141Z" fill="white"/>
<path d="M17.0066 62.3648L16.7334 63.1851L16.7334 63.185L16.7317 63.1902C16.3703 64.2959 17.1448 65.445 18.2936 65.5266V68.4375C18.2936 69.854 19.4395 71 20.8561 71C21.639 71 22.3394 70.6499 22.8092 70.0975C23.279 70.6499 23.9793 71 24.7623 71C26.1788 71 27.3248 69.854 27.3248 68.4375V65.5266C28.4642 65.4448 29.26 64.3034 28.8845 63.1839C28.8843 63.1833 28.8841 63.1826 28.8839 63.182L28.6121 62.3656C29.2899 62.4843 30.0132 62.3312 30.6025 61.8882C30.7573 61.7718 30.8952 61.6411 31.0156 61.4995C31.1799 61.6932 31.3759 61.8654 31.6018 62.0079C32.32 62.4609 33.1818 62.514 33.9186 62.2209V68.4375C33.9186 69.854 35.0645 71 36.4811 71C37.264 71 37.9644 70.6499 38.4342 70.0975C38.904 70.6499 39.6043 71 40.3873 71C41.8038 71 42.9498 69.854 42.9498 68.4375V62.2216C43.6864 62.517 44.5497 62.4681 45.2715 62.0128C46.4661 61.2591 46.8245 59.6811 46.0735 58.4827L46.0727 58.4813L43.5498 54.47C43.5495 54.4695 43.5492 54.4691 43.5489 54.4686C42.7364 53.1696 41.4458 52.2746 39.9874 51.9464C40.4929 51.7409 40.9576 51.4352 41.351 51.0418L40.6439 50.3347L41.351 51.0418C42.1246 50.2682 42.5592 49.219 42.5592 48.125C42.5592 47.031 42.1246 45.9818 41.351 45.2082L40.6508 45.9084L41.351 45.2082C40.5774 44.4346 39.5282 44 38.4342 44C37.3402 44 36.291 44.4346 35.5174 45.2082C34.7438 45.9818 34.3092 47.031 34.3092 48.125C34.3092 49.219 34.7438 50.2682 35.5174 51.0418C35.9116 51.4361 36.3775 51.7423 36.8844 51.9478C35.4284 52.2781 34.1399 53.1757 33.3257 54.4665L33.3253 54.4671L30.9986 58.1619L28.2257 54.504C28.2256 54.5038 28.2254 54.5036 28.2253 54.5034C28.2253 54.5034 28.2253 54.5033 28.2252 54.5033C27.2454 53.2089 25.8424 52.3225 24.2885 51.9756C24.8227 51.7704 25.3135 51.4543 25.726 51.0418C26.4996 50.2682 26.9342 49.219 26.9342 48.125C26.9342 47.031 26.4996 45.9818 25.726 45.2082C24.9524 44.4346 23.9032 44 22.8092 44C21.7152 44 20.666 44.4346 19.8924 45.2082C19.1188 45.9818 18.6842 47.031 18.6842 48.125C18.6842 49.219 19.1188 50.2682 19.8924 51.0418C20.3048 51.4543 20.7957 51.7704 21.3298 51.9756C19.7757 52.3225 18.3725 53.2091 17.3926 54.504L14.5172 58.2973L14.5171 58.2973L14.5147 58.3005C13.6675 59.4274 13.8884 61.0345 15.0132 61.8861C15.6034 62.333 16.3277 62.4851 17.0066 62.3648Z" fill="white" stroke="#00C3D0" stroke-width="2"/>
</svg>
