<svg width="61" height="76" viewBox="0 0 61 76" fill="none" xmlns="http://www.w3.org/2000/svg">
<circle cx="30.5" cy="30" r="30" fill="#00C3D0"/>
<path d="M9.84813 14.744H22.1821V16.242H9.84813V14.744ZM15.2381 15.388H17.0021V21.044C17.0021 23.872 15.8401 26.224 10.5621 27.274C10.3801 26.896 9.90413 26.168 9.54013 25.79C14.5941 25.02 15.2381 23.256 15.2381 21.016V15.388ZM12.6481 20.582V21.506H19.6201V20.582H12.6481ZM12.6481 18.426V19.322H19.6201V18.426H12.6481ZM11.0661 17.068H21.3001V22.85H11.0661V17.068ZM12.7321 22.794C14.6921 25.3 17.9681 25.496 22.7421 25.454C22.4481 25.846 22.1261 26.56 22.0421 27.12C17.1001 27.022 13.4041 26.56 11.2621 23.382L12.7321 22.794ZM26.4801 14.058L28.1881 14.492C27.4461 16.578 26.2141 18.594 24.9681 19.854C24.6461 19.56 23.9321 19 23.5261 18.762C24.7861 17.67 25.8781 15.878 26.4801 14.058ZM26.7741 15.654H35.6781V17.278H25.9621L26.7741 15.654ZM25.7801 18.958H35.3561V20.526H27.4741V23.466H25.7801V18.958ZM23.5681 22.64H36.4481V24.264H23.5681V22.64ZM29.8961 16.494H31.6321V27.26H29.8961V16.494ZM45.6041 14.744H49.2301V16.256H45.6041V14.744ZM45.6041 17.908H49.2301V19.378H45.6041V17.908ZM45.6041 21.1H49.2441V22.598H45.6041V21.1ZM48.5021 14.744H50.1261V25.412C50.1261 26.224 49.9721 26.686 49.4681 26.938C48.9781 27.204 48.2641 27.246 47.2141 27.246C47.1721 26.798 46.9481 26.07 46.7381 25.65C47.3401 25.678 48.0261 25.678 48.2221 25.664C48.4321 25.664 48.5021 25.594 48.5021 25.384V14.744ZM44.9181 14.744H46.4861V19.882C46.4861 22.094 46.3041 25.3 45.1141 27.288C44.8341 26.994 44.1481 26.504 43.7841 26.336C44.8341 24.544 44.9181 21.884 44.9181 19.882V14.744ZM37.5821 15.766H44.4421V17.222H37.5821V15.766ZM39.4161 18.048H42.7481V19.336H39.4161V18.048ZM39.4161 20.232H42.7621V21.506H39.4161V20.232ZM37.4141 22.444H44.3441V23.914H37.4141V22.444ZM38.6881 14.268H40.2001V22.976H38.6881V14.268ZM41.9501 14.268H43.4901V22.976H41.9501V14.268ZM39.1641 24.012L40.7461 24.474C40.2281 25.51 39.4021 26.602 38.6601 27.288C38.3381 27.008 37.6941 26.532 37.3021 26.308C38.0581 25.734 38.7721 24.866 39.1641 24.012ZM41.2361 24.642L42.5101 23.942C43.0701 24.558 43.7841 25.412 44.1061 25.986L42.7481 26.784C42.4681 26.224 41.7961 25.3 41.2361 24.642ZM20.9081 32.522L22.4481 31.78C23.3581 32.802 24.2541 34.174 24.6601 35.154L23.0221 36.036C22.6581 35.056 21.7621 33.586 20.9081 32.522ZM16.3581 39.886C17.8001 39.396 20.0261 38.5 22.0701 37.646L22.4621 39.298C20.6001 40.138 18.5281 41.006 16.9461 41.678L16.3581 39.886ZM24.5621 38.626L25.8641 37.45C27.1381 38.78 28.9301 40.642 29.7281 41.86L28.3001 43.246C27.5581 42 25.8501 40.054 24.5621 38.626ZM26.4661 30.912L28.3281 31.08C27.6701 37.422 25.9761 41.216 21.3841 43.288C21.1461 42.91 20.4461 42.154 20.0401 41.79C24.5061 40.11 25.9481 36.694 26.4661 30.912ZM17.9541 30.968L19.7181 30.898L20.0261 39.998L18.2761 40.068L17.9541 30.968ZM35.9021 37.254H43.0141V38.626H35.9021V37.254ZM35.1601 39.9H43.4481V41.314H35.1601V39.9ZM39.3181 36.33H40.9561V43.26H39.3181V36.33ZM36.6721 37.856H38.1281V40.474H36.6721V37.856ZM31.0021 30.716H34.3061V32.214H32.4721V43.274H31.0021V30.716ZM33.7881 30.716H34.0681L34.3061 30.66L35.3981 31.276C35.0341 32.48 34.5721 34.006 34.1661 35.098C35.0341 36.19 35.2021 37.128 35.2021 37.94C35.2021 38.85 35.0201 39.438 34.5721 39.746C34.3481 39.9 34.0821 39.998 33.7741 40.04C33.5221 40.068 33.1861 40.082 32.8641 40.082C32.8501 39.676 32.7241 39.046 32.5001 38.64C32.7521 38.654 32.9341 38.668 33.1021 38.654C33.2561 38.654 33.3961 38.626 33.4941 38.542C33.6621 38.416 33.7321 38.136 33.7321 37.744C33.7321 37.086 33.5501 36.218 32.7521 35.28C33.1441 34.02 33.5921 32.088 33.7881 31.192V30.716ZM37.7501 31.29H41.4741V32.592H37.7501V31.29ZM41.1521 31.29H41.4461L41.7261 31.234L42.7621 31.71C41.6141 34.678 39.0521 36.372 36.0561 37.212C35.8741 36.806 35.5101 36.204 35.2161 35.882C37.9041 35.28 40.2981 33.768 41.1521 31.528V31.29ZM38.0861 32.228C39.0521 33.964 41.0961 35.196 43.7701 35.644C43.4481 35.952 43.0141 36.582 42.8041 36.988C39.9621 36.372 37.9321 34.888 36.7421 32.648L38.0861 32.228ZM38.1141 30.128L39.6821 30.394C38.9541 31.92 37.8761 33.334 36.1961 34.482C35.9721 34.146 35.4681 33.628 35.1181 33.404C36.6441 32.494 37.6101 31.248 38.1141 30.128Z" fill="white"/>
<path d="M28.7492 73.9179C29.2515 74.5759 30.0441 75 30.9369 75C32.4571 75 33.687 73.7703 33.687 72.25V61.6381L34.5099 62.6294L34.5102 62.6297C34.7737 62.9468 35.0936 63.1899 35.4433 63.3563C34.4889 64.0999 33.8746 65.26 33.8746 66.5625V67C33.8746 68.2797 34.9076 69.3125 36.1872 69.3125C36.6218 69.3125 37.0279 69.1934 37.3748 68.9859V72.6875C37.3748 73.9672 38.4078 75 39.6874 75C40.967 75 42 73.9672 42 72.6875V66.5625C42 64.609 40.6181 62.9757 38.7794 62.5875C39.5753 61.5903 39.594 60.1377 38.7454 59.1157L28.7492 73.9179ZM28.7492 73.9179C28.247 74.5759 27.4544 75 26.5616 75C25.0413 75 23.8115 73.7703 23.8115 72.25V63.5679C22.9508 64.5453 21.4856 64.8012 20.3303 64.1049C19.0324 63.3228 18.6107 61.6317 19.3934 60.3322C19.3935 60.332 19.3936 60.3317 19.3938 60.3315L22.5817 55.0278L22.5821 55.0271C23.7138 53.1475 25.7445 51.9945 27.9398 51.9945H29.1625C29.1457 51.9878 29.1289 51.981 29.1121 51.9741C28.6723 51.7919 28.2726 51.5249 27.936 51.1883C27.5994 50.8517 27.3323 50.4521 27.1501 50.0122C26.968 49.5724 26.8742 49.101 26.8742 48.625C26.8742 48.149 26.968 47.6776 27.1501 47.2378C27.3323 46.7979 27.5994 46.3983 27.936 46.0617C28.2726 45.7251 28.6723 45.4581 29.1121 45.2759C29.5519 45.0938 30.0233 45 30.4993 45C30.9754 45 31.4468 45.0938 31.8866 45.2759C32.3264 45.4581 32.7261 45.7251 33.0627 46.0617C33.3993 46.3983 33.6664 46.7979 33.8486 47.2378C34.0307 47.6776 34.1245 48.149 34.1245 48.625C34.1245 49.101 34.0307 49.5724 33.8486 50.0122C33.6664 50.4521 33.3993 50.8517 33.0627 51.1883C32.7261 51.5249 32.3264 51.7919 31.8866 51.9741C31.7021 52.0505 31.5119 52.1114 31.3182 52.1563C32.6374 52.4621 33.8353 53.1912 34.715 54.2543C34.7151 54.2545 34.7152 54.2546 34.7154 54.2547L38.7447 59.1148L28.7492 73.9179Z" fill="white" stroke="#00C3D0" stroke-width="2"/>
</svg>
