<svg width="61" height="68" viewBox="0 0 61 68" fill="none" xmlns="http://www.w3.org/2000/svg">
<circle cx="30.5" cy="30" r="30" fill="#00C3D0"/>
<path d="M12.9561 32.3961H14.6501V34.6781C14.6501 35.0981 14.7761 35.1401 15.4621 35.1401C15.7701 35.1401 17.0581 35.1401 17.4641 35.1401C18.0521 35.1401 18.1501 34.9441 18.2341 33.5441C18.5841 33.7961 19.2981 34.0621 19.7601 34.1601C19.5641 36.1621 19.0881 36.6661 17.6041 36.6661C17.2121 36.6661 15.6301 36.6661 15.2661 36.6661C13.4041 36.6661 12.9561 36.1901 12.9561 34.6921V32.3961ZM14.3421 31.9621L15.4481 30.9261C16.4421 31.4161 17.6741 32.2001 18.2761 32.8301L17.0721 33.9781C16.5261 33.3621 15.3361 32.5081 14.3421 31.9621ZM19.2141 32.5641L20.7121 31.9481C21.4821 32.9841 22.2801 34.3561 22.5601 35.3501L20.9221 36.0361C20.6841 35.0981 19.9561 33.6561 19.2141 32.5641ZM10.9821 32.0321L12.4941 32.5781C12.1721 33.7821 11.6821 35.1961 11.0101 36.1341L9.51213 35.2941C10.1561 34.4541 10.6881 33.1801 10.9821 32.0321ZM12.4941 28.3781V29.5821H19.3261V28.3781H12.4941ZM12.4941 25.8301V27.0201H19.3261V25.8301H12.4941ZM10.9121 24.3741H20.9921V31.0381H10.9121V24.3741ZM15.1261 25.0181H16.7641V30.4361H15.1261V25.0181ZM23.6381 28.8121H36.3781V30.1841H23.6381V28.8121ZM27.2641 33.0681H32.6961V34.2581H27.2641V33.0681ZM27.2641 35.2101H32.6961V36.5121H27.2641V35.2101ZM24.8561 26.7961H35.1601V28.1261H24.8561V26.7961ZM24.3941 24.7661H35.6221V26.1101H24.3941V24.7661ZM31.9121 27.2301C32.7521 29.4561 34.4741 31.3881 36.7701 32.2841C36.3921 32.6201 35.8741 33.2641 35.6361 33.6841C33.1861 32.5501 31.4501 30.3941 30.4141 27.6781L31.9121 27.2301ZM26.2421 30.8981H33.7881V36.8761H32.0381V32.2001H27.8941V36.9321H26.2421V30.8981ZM28.7621 23.7861L30.4701 23.9121C30.1201 27.9161 28.5381 31.7661 24.3661 34.0061C24.1701 33.5721 23.6661 32.9281 23.2741 32.6481C27.1941 30.7161 28.5381 27.2861 28.7621 23.7861ZM45.6041 24.4161H49.2301V25.9281H45.6041V24.4161ZM45.6041 27.5801H49.2301V29.0501H45.6041V27.5801ZM45.6041 30.7721H49.2441V32.2701H45.6041V30.7721ZM48.5021 24.4161H50.1261V35.0841C50.1261 35.8961 49.9721 36.3581 49.4681 36.6101C48.9781 36.8761 48.2641 36.9181 47.2141 36.9181C47.1721 36.4701 46.9481 35.7421 46.7381 35.3221C47.3401 35.3501 48.0261 35.3501 48.2221 35.3361C48.4321 35.3361 48.5021 35.2661 48.5021 35.0561V24.4161ZM44.9181 24.4161H46.4861V29.5541C46.4861 31.7661 46.3041 34.9721 45.1141 36.9601C44.8341 36.6661 44.1481 36.1761 43.7841 36.0081C44.8341 34.2161 44.9181 31.5561 44.9181 29.5541V24.4161ZM37.5821 25.4381H44.4421V26.8941H37.5821V25.4381ZM39.4161 27.7201H42.7481V29.0081H39.4161V27.7201ZM39.4161 29.9041H42.7621V31.1781H39.4161V29.9041ZM37.4141 32.1161H44.3441V33.5861H37.4141V32.1161ZM38.6881 23.9401H40.2001V32.6481H38.6881V23.9401ZM41.9501 23.9401H43.4901V32.6481H41.9501V23.9401ZM39.1641 33.6841L40.7461 34.1461C40.2281 35.1821 39.4021 36.2741 38.6601 36.9601C38.3381 36.6801 37.6941 36.2041 37.3021 35.9801C38.0581 35.4061 38.7721 34.5381 39.1641 33.6841ZM41.2361 34.3141L42.5101 33.6141C43.0701 34.2301 43.7841 35.0841 44.1061 35.6581L42.7481 36.4561C42.4681 35.8961 41.7961 34.9721 41.2361 34.3141Z" fill="white"/>
<path d="M19.5625 67H20.125H20.5625H21.125H27.375H28.375V66V59.1875H32.625V66V67H33.625H39.875H40.4375H40.875H41.4375H45.3438C46.3277 67 47.125 66.2027 47.125 65.2188V51.9375C47.125 50.5224 45.9776 49.375 44.5625 49.375H41.4375H40.875V47.771C40.875 46.9144 40.4468 46.1137 39.7337 45.6385L31.9214 40.4302L31.921 40.4299C31.5001 40.1496 31.0057 40 30.5 40C29.9943 40 29.4999 40.1496 29.079 40.4299L29.0786 40.4302L21.2661 45.6386C21.2661 45.6387 21.2661 45.6387 21.2661 45.6387C20.9151 45.8726 20.6274 46.1896 20.4283 46.5614C20.2293 46.9333 20.1251 47.3485 20.125 47.7703V47.7705V49.375H19.5625H16.4375C15.0224 49.375 13.875 50.5224 13.875 51.9375V65.2188C13.875 66.2027 14.6723 67 15.6562 67H19.5625ZM32.4531 48.5938H32.2812V47.6406C32.2812 47.5074 32.2625 47.3785 32.2275 47.2565C32.7639 47.6537 33.1588 48.231 33.3227 48.899C33.0845 48.708 32.7822 48.5938 32.4531 48.5938ZM28.7725 47.2565C28.7375 47.3785 28.7188 47.5074 28.7188 47.6406V50.7656C28.7188 51.5337 29.3413 52.1563 30.1094 52.1563H31.8722C31.4635 52.3756 30.9963 52.5 30.5 52.5C28.8951 52.5 27.5938 51.1987 27.5938 49.5938C27.5938 48.6358 28.0574 47.786 28.7725 47.2565Z" fill="white" stroke="#00C3D0" stroke-width="2"/>
</svg>
